<svg xmlns="http://www.w3.org/2000/svg" x="0px" y="0px" width="100" height="100" viewBox="0 0 48 48">
<radialGradient id="nw2JPvgEzDKQpjWgMaZM5a_QdAGIsBAJMG7_gr1" cx="48.477" cy="36.475" r="22.942" gradientUnits="userSpaceOnUse"><stop offset="0" stop-color="#bd8af5"></stop><stop offset=".137" stop-color="#b88bf5"></stop><stop offset=".309" stop-color="#a88ff3"></stop><stop offset=".499" stop-color="#8f96f2"></stop><stop offset=".702" stop-color="#6b9eef"></stop><stop offset=".913" stop-color="#3eaaec"></stop><stop offset="1" stop-color="#29afea"></stop></radialGradient><path fill="url(#nw2JPvgEzDKQpjWgMaZM5a_QdAGIsBAJMG7_gr1)" d="M40,6H8C6.895,6,6,6.895,6,8v32c0,1.105,0.895,2,2,2h32c1.105,0,2-0.895,2-2V8	C42,6.895,41.105,6,40,6z"></path><path fill="#436dcd" d="M32.065,23.065c-1.149-1.149-3.005-1.174-4.185-0.057L18,32.368V42h22c1.105,0,2-0.895,2-2v-7	L32.065,23.065z"></path><circle cx="30.5" cy="14.5" r="3.5" fill="#fff"></circle><linearGradient id="nw2JPvgEzDKQpjWgMaZM5b_QdAGIsBAJMG7_gr2" x1="23.91" x2="23.91" y1="18.133" y2="42.415" gradientUnits="userSpaceOnUse"><stop offset="0" stop-color="#124787"></stop><stop offset=".923" stop-color="#173b75"></stop><stop offset="1" stop-color="#173a73"></stop></linearGradient><path fill="url(#nw2JPvgEzDKQpjWgMaZM5b_QdAGIsBAJMG7_gr2)" d="M8,42h32c0.811,0,1.507-0.485,1.82-1.18L20.065,19.065c-1.149-1.149-3.005-1.174-4.185-0.057	L6,28.368V40C6,41.105,6.895,42,8,42z"></path>
</svg>