<svg xmlns="http://www.w3.org/2000/svg" width="100" height="100" viewBox="0 0 48 48"><radialGradient id="prefix__a" cx="48.477" cy="36.475" r="22.942" gradientUnits="userSpaceOnUse"><stop offset="0" stop-color="#bd8af5"/><stop offset=".137" stop-color="#b88bf5"/><stop offset=".309" stop-color="#a88ff3"/><stop offset=".499" stop-color="#8f96f2"/><stop offset=".702" stop-color="#6b9eef"/><stop offset=".913" stop-color="#3eaaec"/><stop offset="1" stop-color="#29afea"/></radialGradient><path fill="url(#prefix__a)" d="M40 6H8a2 2 0 00-2 2v32a2 2 0 002 2h32a2 2 0 002-2V8a2 2 0 00-2-2z"/><path fill="#436dcd" d="M32.065 23.065a3.002 3.002 0 00-4.185-.057L18 32.368V42h22a2 2 0 002-2v-7l-9.935-9.935z"/><circle cx="30.5" cy="14.5" r="3.5" fill="#fff"/><linearGradient id="prefix__b" x1="23.91" x2="23.91" y1="18.133" y2="42.415" gradientUnits="userSpaceOnUse"><stop offset="0" stop-color="#124787"/><stop offset=".923" stop-color="#173b75"/><stop offset="1" stop-color="#173a73"/></linearGradient><path fill="url(#prefix__b)" d="M8 42h32c.811 0 1.507-.485 1.82-1.18L20.065 19.065a3.002 3.002 0 00-4.185-.057L6 28.368V40a2 2 0 002 2z"/></svg>